<?xml version="1.0" standalone="no"?>
<!DOCTYPE svg PUBLIC "-//W3C//DTD SVG 20010904//EN"
 "http://www.w3.org/TR/2001/REC-SVG-20010904/DTD/svg10.dtd">
<svg version="1.0" xmlns="http://www.w3.org/2000/svg"
 width="390.000000pt" height="390.000000pt" viewBox="0 0 390.000000 390.000000"
 preserveAspectRatio="xMidYMid meet">
<metadata>
Created by potrace 1.11, written by Peter Selinger 2001-2013
</metadata>
<g transform="translate(0.000000,390.000000) scale(0.100000,-0.100000)"
fill="#000000" stroke="none">
<path d="M1829 3876 c-2 -2 -38 -6 -79 -10 -75 -6 -88 -7 -190 -27 -393 -76
-768 -294 -1065 -619 -200 -220 -380 -572 -439 -860 -3 -14 -7 -36 -10 -50 -3
-14 -9 -45 -12 -70 -3 -25 -9 -72 -14 -105 -9 -64 -5 -387 5 -445 3 -19 11
-60 16 -90 6 -30 13 -68 16 -85 3 -16 20 -81 39 -143 161 -533 562 -982 1082
-1212 62 -27 115 -49 117 -49 3 0 41 -12 85 -25 44 -14 94 -28 112 -31 17 -3
34 -7 37 -9 3 -2 24 -7 46 -10 22 -4 54 -9 70 -12 95 -17 179 -21 340 -18 99
2 194 5 210 8 17 3 50 8 74 11 23 3 93 19 155 35 144 38 130 34 216 66 455
170 866 554 1074 1006 20 42 53 130 75 195 45 135 49 151 71 273 20 111 25
178 25 340 0 213 -12 313 -61 498 -47 178 -127 367 -209 493 -25 39 -45 72
-45 74 0 2 -28 42 -62 87 -236 318 -586 571 -951 689 -58 18 -133 40 -152 44
-77 16 -127 26 -160 31 -22 3 -51 7 -65 10 -30 6 -346 15 -351 10z m346 -140
c103 -16 279 -55 325 -73 8 -3 20 -7 25 -8 22 -6 143 -54 195 -79 101 -47 262
-145 319 -195 13 -12 28 -21 32 -21 15 0 266 -255 314 -318 187 -249 311 -539
356 -836 27 -172 17 -475 -21 -644 -7 -30 -13 -59 -14 -65 -15 -71 -74 -234
-124 -337 -267 -555 -796 -937 -1407 -1017 -79 -10 -374 -10 -450 0 -52 7 -88
14 -182 33 -12 2 -35 9 -50 15 -16 6 -30 10 -33 10 -12 -1 -90 23 -150 46
-245 93 -506 268 -674 452 -17 18 -41 44 -53 57 -151 164 -320 476 -374 688
-19 75 -40 171 -45 206 -3 19 -7 46 -10 60 -13 65 -12 352 1 456 70 541 387
1030 853 1316 152 93 382 190 506 212 6 1 20 5 31 9 24 7 65 15 120 23 22 3
65 9 95 13 59 9 349 6 415 -3z"/>
<path d="M1270 3000 c-82 -16 -270 -115 -270 -141 0 -7 32 -62 57 -98 2 -2 11
3 21 12 28 25 104 57 139 57 60 0 105 -58 117 -150 3 -19 5 -323 5 -675 l1
-640 137 1 c76 1 141 2 145 3 4 0 9 254 10 564 l3 562 26 55 c49 102 174 214
272 241 98 28 218 -5 269 -74 23 -30 63 -117 54 -117 -3 0 0 -15 5 -32 20 -69
23 -231 24 -1065 l0 -863 146 0 147 0 -3 973 c-2 972 -4 1026 -38 1132 -52
164 -177 250 -379 260 -139 8 -304 -76 -478 -242 l-55 -52 -15 72 c-23 108
-67 170 -144 202 -43 18 -142 26 -196 15z"/>
</g>
</svg>
