<?xml version="1.0" standalone="no"?>
<!DOCTYPE svg PUBLIC "-//W3C//DTD SVG 20010904//EN"
 "http://www.w3.org/TR/2001/REC-SVG-20010904/DTD/svg10.dtd">
<svg version="1.0" xmlns="http://www.w3.org/2000/svg"
 width="175.000000pt" height="175.000000pt" viewBox="0 0 175.000000 175.000000"
 preserveAspectRatio="xMidYMid meet">
<metadata>
Created by potrace 1.11, written by Peter Selinger 2001-2013
</metadata>
<g transform="translate(0.000000,175.000000) scale(0.100000,-0.100000)"
fill="#000000" stroke="none">
<path d="M508 1691 c-28 -4 -53 -14 -61 -25 -9 -13 -18 -176 -35 -634 -13
-339 -23 -654 -22 -699 0 -81 0 -81 32 -101 54 -33 143 -47 210 -33 31 7 61
17 66 24 6 7 18 210 27 467 13 354 20 462 32 489 21 47 114 141 140 141 13 0
37 -18 61 -45 31 -35 43 -60 57 -121 17 -73 17 -93 1 -483 -9 -223 -16 -441
-16 -484 0 -75 1 -78 28 -88 15 -6 40 -17 56 -25 35 -17 159 -19 205 -3 18 7
33 20 36 32 6 28 45 885 45 991 0 111 -27 278 -55 342 -23 51 -102 164 -116
164 -3 0 -24 12 -45 27 -36 25 -47 27 -134 28 -92 0 -210 -26 -210 -45 0 -7
-56 -46 -82 -58 -5 -2 -8 21 -8 51 0 54 -12 76 -42 81 -7 1 -17 4 -23 7 -14 8
-91 8 -147 0z m112 -51 c0 -5 -2 -10 -4 -10 -3 0 -8 5 -11 10 -3 6 -1 10 4 10
6 0 11 -4 11 -10z m-68 -52 c-9 -9 -15 -9 -24 0 -9 9 -7 12 12 12 19 0 21 -3
12 -12z m548 -9 c17 -13 18 -17 5 -10 -33 17 -51 31 -40 31 6 0 21 -10 35 -21z
m-28 -66 c26 -24 22 -36 -9 -28 -36 8 -95 53 -88 66 7 10 71 -14 97 -38z"/>
</g>
</svg>
